<svg width="20" height="20" viewBox="0 0 20 20" fill="none" xmlns="http://www.w3.org/2000/svg">
<path d="M9.74463 2.08584C12.3344 2.08584 12.6411 2.09549 13.6641 2.14192C14.2792 2.14941 14.8885 2.26182 15.4655 2.47426C15.8838 2.63485 16.2638 2.88084 16.5809 3.19641C16.898 3.51198 17.1452 3.89013 17.3065 4.30652C17.52 4.8807 17.6329 5.48707 17.6404 6.09924C17.6866 7.11742 17.6968 7.42264 17.6968 10C17.6968 12.5774 17.6871 12.8826 17.6404 13.9008C17.6329 14.513 17.52 15.1194 17.3065 15.6935C17.1452 16.1099 16.898 16.4881 16.5809 16.8036C16.2638 17.1192 15.8838 17.3652 15.4655 17.5258C14.8885 17.7382 14.2792 17.8507 13.6641 17.8581C12.6415 17.9041 12.3348 17.9142 9.74463 17.9142C7.15441 17.9142 6.84772 17.9046 5.82512 17.8581C5.21 17.8507 4.60073 17.7382 4.02379 17.5258C3.6054 17.3652 3.22544 17.1192 2.90835 16.8036C2.59127 16.4881 2.3441 16.1099 2.18274 15.6935C1.96928 15.1194 1.85633 14.513 1.8488 13.9008C1.80262 12.8826 1.79245 12.5774 1.79245 10C1.79245 7.42264 1.80215 7.11742 1.8488 6.09924C1.85633 5.48707 1.96928 4.8807 2.18274 4.30652C2.3441 3.89013 2.59127 3.51198 2.90835 3.19641C3.22544 2.88084 3.6054 2.63485 4.02379 2.47426C4.60073 2.26182 5.21 2.14941 5.82512 2.14192C6.84818 2.09595 7.15487 2.08584 9.74463 2.08584ZM9.74463 0.346436C7.11192 0.346436 6.78029 0.357468 5.74568 0.404354C4.94064 0.42029 4.14416 0.571988 3.39009 0.852995C2.74323 1.09555 2.15734 1.47565 1.67329 1.96678C1.17936 2.44869 0.797102 3.03212 0.553233 3.67631C0.270877 4.42677 0.118451 5.21945 0.102439 6.02064C0.0562511 7.04939 0.045166 7.37943 0.045166 9.99957C0.045166 12.6197 0.0562511 12.9498 0.103363 13.9794C0.119375 14.7806 0.271801 15.5733 0.554157 16.3238C0.797756 16.9679 1.17969 17.5513 1.67329 18.0333C2.1576 18.5245 2.74382 18.9046 3.39102 19.1471C4.14508 19.4281 4.94157 19.5798 5.7466 19.5957C6.78121 19.6417 7.11145 19.6536 9.74555 19.6536C12.3796 19.6536 12.7099 19.6426 13.7445 19.5957C14.5495 19.5798 15.346 19.4281 16.1001 19.1471C16.7442 18.8986 17.3291 18.519 17.8175 18.0327C18.3058 17.5464 18.6868 16.964 18.936 16.3228C19.2184 15.5724 19.3708 14.7797 19.3868 13.9785C19.433 12.9498 19.4441 12.6197 19.4441 9.99957C19.4441 7.37943 19.433 7.04939 19.3859 6.01972C19.3699 5.21853 19.2175 4.42585 18.9351 3.67539C18.6915 3.03128 18.3096 2.44786 17.816 1.96586C17.3316 1.47462 16.7454 1.09451 16.0982 0.852076C15.3442 0.571069 14.5477 0.419371 13.7427 0.403435C12.709 0.357468 12.3773 0.346436 9.74463 0.346436Z" fill="white"/>
<path d="M9.74287 5.04272C8.75774 5.04272 7.79473 5.33345 6.97563 5.87815C6.15652 6.42284 5.51811 7.19704 5.14111 8.10283C4.76412 9.00863 4.66548 10.0053 4.85767 10.9669C5.04986 11.9285 5.52425 12.8118 6.22084 13.505C6.91743 14.1983 7.80494 14.6704 8.77114 14.8617C9.73734 15.053 10.7388 14.9548 11.649 14.5796C12.5591 14.2044 13.337 13.5691 13.8843 12.7539C14.4316 11.9387 14.7238 10.9803 14.7238 9.99984C14.7238 8.68513 14.199 7.42427 13.2649 6.49463C12.3308 5.56499 11.0639 5.04272 9.74287 5.04272ZM9.74287 13.2176C9.10341 13.2176 8.47831 13.0288 7.94662 12.6753C7.41494 12.3217 7.00053 11.8192 6.75582 11.2312C6.51111 10.6432 6.44709 9.99627 6.57184 9.37209C6.69659 8.74792 7.00452 8.17458 7.45668 7.72457C7.90885 7.27457 8.48494 6.96811 9.11211 6.84395C9.73928 6.7198 10.3894 6.78352 10.9801 7.02706C11.5709 7.2706 12.0759 7.68302 12.4311 8.21217C12.7864 8.74132 12.976 9.36344 12.976 9.99984C12.976 10.8532 12.6354 11.6717 12.0291 12.2751C11.4227 12.8785 10.6004 13.2176 9.74287 13.2176Z" fill="white"/>
<path d="M14.9213 6.00523C15.5641 6.00523 16.0852 5.48661 16.0852 4.84685C16.0852 4.2071 15.5641 3.68848 14.9213 3.68848C14.2784 3.68848 13.7573 4.2071 13.7573 4.84685C13.7573 5.48661 14.2784 6.00523 14.9213 6.00523Z" fill="white"/>
</svg>
