<svg width="19" height="18" viewBox="0 0 19 18" fill="none" xmlns="http://www.w3.org/2000/svg">
<path fill-rule="evenodd" clip-rule="evenodd" d="M9.72217 -0.00952148C4.58057 -0.00952148 0.444092 4.1072 0.444092 9.22424C0.444092 13.3025 3.11154 16.7652 6.78411 17.9963C7.24801 18.0733 7.40265 17.804 7.40265 17.5346C7.40265 17.3038 7.40265 16.7267 7.40265 15.9572C4.81252 16.5343 4.2713 14.726 4.2713 14.726C3.84605 13.6488 3.22751 13.3794 3.22751 13.3794C2.37702 12.8023 3.30483 12.8023 3.30483 12.8023C4.23264 12.8793 4.7352 13.7642 4.7352 13.7642C5.54703 15.1877 6.90009 14.7645 7.44131 14.5337C7.51863 13.9181 7.75058 13.5333 8.02119 13.3025C5.97228 13.0716 3.80739 12.2637 3.80739 8.72408C3.80739 7.72376 4.15532 6.87733 4.77386 6.26174C4.69654 6.0309 4.34862 5.10752 4.85118 3.79941C4.85118 3.79941 5.62435 3.56856 7.40265 4.76126C8.13716 4.56889 8.949 4.45346 9.72217 4.45346C10.4953 4.45346 11.3072 4.56889 12.0417 4.76126C13.82 3.56856 14.5932 3.79941 14.5932 3.79941C15.0957 5.06905 14.7865 5.99243 14.6705 6.26174C15.2504 6.9158 15.6369 7.72376 15.6369 8.72408C15.6369 12.2637 13.4721 13.0332 11.3845 13.264C11.7324 13.5333 12.003 14.1104 12.003 14.9569C12.003 16.188 12.003 17.1884 12.003 17.4962C12.003 17.727 12.1577 18.0348 12.6602 17.9578C16.3328 16.7652 19.0002 13.3025 19.0002 9.22424C19.0002 4.1072 14.8638 -0.00952148 9.72217 -0.00952148Z" fill="white"/>
</svg>
