<svg width="16" height="14" viewBox="0 0 16 14" fill="none" xmlns="http://www.w3.org/2000/svg">
<path d="M15.9923 2.05745C15.3923 2.32283 14.759 2.48869 14.0924 2.58821C14.759 2.19014 15.2923 1.55987 15.5256 0.796903C14.8923 1.1618 14.1924 1.42718 13.4257 1.59304C12.8258 0.962765 11.9592 0.564697 11.0259 0.564697C9.22598 0.564697 7.7594 2.02428 7.7594 3.81558C7.7594 4.08096 7.79273 4.31317 7.85939 4.54537C5.15954 4.41268 2.72635 3.11896 1.0931 1.12863C0.826451 1.62621 0.659794 2.15697 0.659794 2.75407C0.659794 3.88193 1.22643 4.87709 2.12638 5.4742C1.59307 5.44102 1.0931 5.30833 0.626462 5.07613V5.1093C0.626462 6.70157 1.75973 8.02846 3.25965 8.32701C2.993 8.39336 2.69301 8.42653 2.39303 8.42653C2.19304 8.42653 1.95972 8.39336 1.75973 8.36019C2.19304 9.6539 3.39297 10.6159 4.82623 10.6159C3.69296 11.4784 2.29304 12.0091 0.759788 12.0091C0.493136 12.0091 0.226484 12.0091 -0.00683594 11.976C1.45975 12.9048 3.15965 13.4355 5.02622 13.4355C11.0592 13.4355 14.359 8.4597 14.359 4.1473C14.359 4.01462 14.359 3.84875 14.359 3.71606C14.9923 3.28482 15.559 2.7209 15.9923 2.05745Z" fill="white"/>
</svg>
