<svg width="340" height="345" viewBox="0 0 340 345" fill="none" xmlns="http://www.w3.org/2000/svg">
<g clip-path="url(#clip0_105_71)">
<path fill-rule="evenodd" clip-rule="evenodd" d="M323.11 345C313.879 345 306.395 337.516 306.395 328.284V345H289.68C280.449 345 272.965 337.516 272.965 328.284C272.965 319.053 280.449 311.569 289.68 311.569C280.449 311.569 272.965 304.086 272.965 294.854C272.965 290.271 274.81 286.118 277.798 283.098L277.861 283.035L277.916 282.98C280.937 279.987 285.093 278.139 289.68 278.139C294.237 278.139 298.367 279.962 301.382 282.919C301.422 282.957 301.461 282.996 301.5 283.035C301.536 283.072 301.573 283.108 301.609 283.145C304.569 286.161 306.395 290.294 306.395 294.854C306.395 285.623 313.879 278.139 323.11 278.139C332.342 278.139 339.825 285.623 339.825 294.854V311.569H323.11C332.342 311.569 339.825 319.053 339.825 328.284C339.825 337.516 332.342 345 323.11 345ZM309.738 328.284C309.738 320.899 315.725 314.912 323.11 314.912V341.656C315.725 341.656 309.738 335.67 309.738 328.284ZM276.308 294.854C276.308 302.24 282.295 308.226 289.68 308.226C297.065 308.226 303.052 302.24 303.052 294.854H276.308ZM336.482 308.226V294.854C336.482 287.469 330.496 281.482 323.11 281.482C315.725 281.482 309.738 287.469 309.738 294.854V308.226H336.482ZM303.052 314.912V341.656H289.68C282.295 341.656 276.308 335.67 276.308 328.284C276.308 320.899 282.295 314.912 289.68 314.912H303.052Z" fill="#2F2F2F"/>
</g>
<g clip-path="url(#clip1_105_71)">
<path fill-rule="evenodd" clip-rule="evenodd" d="M323.111 275.464C313.879 275.464 306.395 267.981 306.395 258.749V275.464H289.68C280.449 275.464 272.965 267.981 272.965 258.749C272.965 249.518 280.449 242.034 289.68 242.034C280.449 242.034 272.965 234.551 272.965 225.319C272.965 220.735 274.811 216.583 277.798 213.563L277.861 213.5L277.916 213.445C280.937 210.452 285.093 208.604 289.68 208.604C294.237 208.604 298.367 210.427 301.383 213.384C301.422 213.422 301.461 213.461 301.5 213.5C301.536 213.536 301.573 213.573 301.609 213.61C304.569 216.626 306.395 220.759 306.395 225.319C306.395 216.088 313.879 208.604 323.111 208.604C332.342 208.604 339.826 216.088 339.826 225.319V242.034H323.111C332.342 242.034 339.826 249.518 339.826 258.749C339.826 267.981 332.342 275.464 323.111 275.464ZM309.738 258.749C309.738 251.364 315.725 245.377 323.111 245.377V272.121C315.725 272.121 309.738 266.134 309.738 258.749ZM276.308 225.319C276.308 232.704 282.295 238.691 289.68 238.691C297.066 238.691 303.052 232.704 303.052 225.319H276.308ZM336.483 238.691V225.319C336.483 217.934 330.496 211.947 323.111 211.947C315.725 211.947 309.738 217.934 309.738 225.319V238.691H336.483ZM303.052 245.377V272.121H289.68C282.295 272.121 276.308 266.134 276.308 258.749C276.308 251.364 282.295 245.377 289.68 245.377H303.052Z" fill="#2F2F2F"/>
</g>
<g clip-path="url(#clip2_105_71)">
<path fill-rule="evenodd" clip-rule="evenodd" d="M323.111 205.93C313.879 205.93 306.395 198.446 306.395 189.215V205.93H289.68C280.449 205.93 272.965 198.446 272.965 189.215C272.965 179.983 280.449 172.5 289.68 172.5C280.449 172.5 272.965 165.016 272.965 155.785C272.965 151.201 274.811 147.048 277.798 144.028L277.861 143.965L277.916 143.91C280.937 140.918 285.093 139.069 289.68 139.069C294.237 139.069 298.367 140.893 301.383 143.849C301.422 143.888 301.461 143.926 301.5 143.965C301.536 144.002 301.573 144.039 301.609 144.075C304.569 147.091 306.395 151.225 306.395 155.785C306.395 146.553 313.879 139.069 323.111 139.069C332.342 139.069 339.826 146.553 339.826 155.785V172.5H323.111C332.342 172.5 339.826 179.983 339.826 189.215C339.826 198.446 332.342 205.93 323.111 205.93ZM309.738 189.215C309.738 181.829 315.725 175.843 323.111 175.843V202.587C315.725 202.587 309.738 196.6 309.738 189.215ZM276.308 155.785C276.308 163.17 282.295 169.157 289.68 169.157C297.066 169.157 303.052 163.17 303.052 155.785H276.308ZM336.483 169.157V155.785C336.483 148.399 330.496 142.412 323.111 142.412C315.725 142.412 309.738 148.399 309.738 155.785V169.157H336.483ZM303.052 175.843V202.587H289.68C282.295 202.587 276.308 196.6 276.308 189.215C276.308 181.829 282.295 175.843 289.68 175.843H303.052Z" fill="#2F2F2F"/>
</g>
<g clip-path="url(#clip3_105_71)">
<path fill-rule="evenodd" clip-rule="evenodd" d="M323.111 136.395C313.879 136.395 306.395 128.911 306.395 119.68V136.395H289.68C280.449 136.395 272.965 128.911 272.965 119.68C272.965 110.448 280.449 102.965 289.68 102.965C280.449 102.965 272.965 95.481 272.965 86.2496C272.965 81.6658 274.811 77.513 277.798 74.4932L277.861 74.4302L277.916 74.3751C280.937 71.3827 285.093 69.5345 289.68 69.5345C294.237 69.5345 298.367 71.3577 301.383 74.3142C301.422 74.3527 301.461 74.3914 301.5 74.4302C301.536 74.4668 301.573 74.5036 301.609 74.5405C304.569 77.5563 306.395 81.6897 306.395 86.2496C306.395 77.0182 313.879 69.5345 323.111 69.5345C332.342 69.5345 339.826 77.0182 339.826 86.2496V102.965H323.111C332.342 102.965 339.826 110.448 339.826 119.68C339.826 128.911 332.342 136.395 323.111 136.395ZM309.738 119.68C309.738 112.295 315.725 106.308 323.111 106.308V133.052C315.725 133.052 309.738 127.065 309.738 119.68ZM276.308 86.2496C276.308 93.6348 282.295 99.6216 289.68 99.6216C297.066 99.6216 303.052 93.6348 303.052 86.2496H276.308ZM336.483 99.6216V86.2496C336.483 78.8644 330.496 72.8775 323.111 72.8775C315.725 72.8775 309.738 78.8644 309.738 86.2496V99.6216H336.483ZM303.052 106.308V133.052H289.68C282.295 133.052 276.308 127.065 276.308 119.68C276.308 112.295 282.295 106.308 289.68 106.308H303.052Z" fill="#2F2F2F"/>
</g>
<g clip-path="url(#clip4_105_71)">
<path fill-rule="evenodd" clip-rule="evenodd" d="M323.111 66.8596C313.879 66.8596 306.395 59.376 306.395 50.1446V66.8596H289.68C280.449 66.8596 272.965 59.376 272.965 50.1446C272.965 40.9132 280.449 33.4295 289.68 33.4295C280.449 33.4295 272.965 25.9458 272.965 16.7144C272.965 12.1307 274.811 7.97781 277.798 4.95807L277.861 4.89506L277.916 4.8399C280.937 1.84756 285.093 -0.000617981 289.68 -0.000617981C294.237 -0.000617981 298.367 1.82249 301.383 4.77906C301.422 4.8175 301.461 4.85628 301.5 4.89506C301.536 4.93166 301.573 4.96843 301.609 5.00537C304.569 8.02111 306.395 12.1546 306.395 16.7144C306.395 7.48305 313.879 -0.000617981 323.111 -0.000617981C332.342 -0.000617981 339.826 7.48305 339.826 16.7144V33.4295H323.111C332.342 33.4295 339.826 40.9132 339.826 50.1446C339.826 59.376 332.342 66.8596 323.111 66.8596ZM309.738 50.1446C309.738 42.7593 315.725 36.7725 323.111 36.7725V63.5166C315.725 63.5166 309.738 57.5297 309.738 50.1446ZM276.308 16.7144C276.308 24.0997 282.295 30.0865 289.68 30.0865C297.066 30.0865 303.052 24.0997 303.052 16.7144H276.308ZM336.483 30.0865V16.7144C336.483 9.32923 330.496 3.34239 323.111 3.34239C315.725 3.34239 309.738 9.32923 309.738 16.7144V30.0865H336.483ZM303.052 36.7725V63.5166H289.68C282.295 63.5166 276.308 57.5297 276.308 50.1446C276.308 42.7593 282.295 36.7725 289.68 36.7725H303.052Z" fill="#2F2F2F"/>
</g>
<g clip-path="url(#clip5_105_71)">
<path fill-rule="evenodd" clip-rule="evenodd" d="M254.913 345C245.682 345 238.198 337.516 238.198 328.284V345H221.483C212.252 345 204.768 337.516 204.768 328.284C204.768 319.053 212.252 311.569 221.483 311.569C212.252 311.569 204.768 304.086 204.768 294.854C204.768 290.271 206.613 286.118 209.601 283.098L209.664 283.035L209.719 282.98C212.74 279.987 216.895 278.139 221.483 278.139C226.039 278.139 230.17 279.962 233.185 282.919C233.224 282.957 233.263 282.996 233.302 283.035C233.339 283.072 233.375 283.108 233.412 283.145C236.372 286.161 238.198 290.294 238.198 294.854C238.198 285.623 245.682 278.139 254.913 278.139C264.145 278.139 271.628 285.623 271.628 294.854V311.569H254.913C264.145 311.569 271.628 319.053 271.628 328.284C271.628 337.516 264.145 345 254.913 345ZM241.541 328.284C241.541 320.899 247.528 314.912 254.913 314.912V341.656C247.528 341.656 241.541 335.67 241.541 328.284ZM208.111 294.854C208.111 302.24 214.098 308.226 221.483 308.226C228.868 308.226 234.855 302.24 234.855 294.854H208.111ZM268.285 308.226V294.854C268.285 287.469 262.298 281.482 254.913 281.482C247.528 281.482 241.541 287.469 241.541 294.854V308.226H268.285ZM234.855 314.912V341.656H221.483C214.098 341.656 208.111 335.67 208.111 328.284C208.111 320.899 214.098 314.912 221.483 314.912H234.855Z" fill="#2F2F2F"/>
</g>
<g clip-path="url(#clip6_105_71)">
<path fill-rule="evenodd" clip-rule="evenodd" d="M254.913 275.464C245.681 275.464 238.198 267.981 238.198 258.749V275.464H221.483C212.251 275.464 204.768 267.981 204.768 258.749C204.768 249.518 212.251 242.034 221.483 242.034C212.251 242.034 204.768 234.551 204.768 225.319C204.768 220.735 206.613 216.583 209.601 213.563L209.663 213.5L209.719 213.445C212.739 210.452 216.895 208.604 221.483 208.604C226.039 208.604 230.17 210.427 233.185 213.384C233.224 213.422 233.263 213.461 233.302 213.5C233.339 213.536 233.375 213.573 233.411 213.61C236.372 216.626 238.198 220.759 238.198 225.319C238.198 216.088 245.681 208.604 254.913 208.604C264.144 208.604 271.628 216.088 271.628 225.319V242.034H254.913C264.144 242.034 271.628 249.518 271.628 258.749C271.628 267.981 264.144 275.464 254.913 275.464ZM241.541 258.749C241.541 251.364 247.528 245.377 254.913 245.377V272.121C247.528 272.121 241.541 266.134 241.541 258.749ZM208.111 225.319C208.111 232.704 214.098 238.691 221.483 238.691C228.868 238.691 234.855 232.704 234.855 225.319H208.111ZM268.285 238.691V225.319C268.285 217.934 262.298 211.947 254.913 211.947C247.528 211.947 241.541 217.934 241.541 225.319V238.691H268.285ZM234.855 245.377V272.121H221.483C214.098 272.121 208.111 266.134 208.111 258.749C208.111 251.364 214.098 245.377 221.483 245.377H234.855Z" fill="#2F2F2F"/>
</g>
<g clip-path="url(#clip7_105_71)">
<path fill-rule="evenodd" clip-rule="evenodd" d="M254.913 205.93C245.682 205.93 238.198 198.446 238.198 189.215V205.93H221.483C212.251 205.93 204.768 198.446 204.768 189.215C204.768 179.983 212.251 172.5 221.483 172.5C212.251 172.5 204.768 165.016 204.768 155.785C204.768 151.201 206.613 147.048 209.601 144.028L209.663 143.965L209.719 143.91C212.739 140.918 216.895 139.069 221.483 139.069C226.039 139.069 230.17 140.893 233.185 143.849C233.224 143.888 233.263 143.926 233.302 143.965C233.339 144.002 233.375 144.039 233.412 144.075C236.372 147.091 238.198 151.225 238.198 155.785C238.198 146.553 245.682 139.069 254.913 139.069C264.144 139.069 271.628 146.553 271.628 155.785V172.5H254.913C264.144 172.5 271.628 179.983 271.628 189.215C271.628 198.446 264.144 205.93 254.913 205.93ZM241.541 189.215C241.541 181.829 247.528 175.843 254.913 175.843V202.587C247.528 202.587 241.541 196.6 241.541 189.215ZM208.111 155.785C208.111 163.17 214.098 169.157 221.483 169.157C228.868 169.157 234.855 163.17 234.855 155.785H208.111ZM268.285 169.157V155.785C268.285 148.399 262.298 142.412 254.913 142.412C247.528 142.412 241.541 148.399 241.541 155.785V169.157H268.285ZM234.855 175.843V202.587H221.483C214.098 202.587 208.111 196.6 208.111 189.215C208.111 181.829 214.098 175.843 221.483 175.843H234.855Z" fill="#2F2F2F"/>
</g>
<g clip-path="url(#clip8_105_71)">
<path fill-rule="evenodd" clip-rule="evenodd" d="M254.913 136.395C245.681 136.395 238.198 128.911 238.198 119.68V136.395H221.483C212.251 136.395 204.768 128.911 204.768 119.68C204.768 110.448 212.251 102.965 221.483 102.965C212.251 102.965 204.768 95.481 204.768 86.2496C204.768 81.6658 206.613 77.513 209.601 74.4932L209.663 74.4302L209.719 74.3751C212.739 71.3827 216.895 69.5345 221.483 69.5345C226.039 69.5345 230.17 71.3577 233.185 74.3142C233.224 74.3527 233.263 74.3914 233.302 74.4302C233.339 74.4668 233.375 74.5036 233.411 74.5405C236.372 77.5563 238.198 81.6897 238.198 86.2496C238.198 77.0182 245.681 69.5345 254.913 69.5345C264.144 69.5345 271.628 77.0182 271.628 86.2496V102.965H254.913C264.144 102.965 271.628 110.448 271.628 119.68C271.628 128.911 264.144 136.395 254.913 136.395ZM241.541 119.68C241.541 112.295 247.528 106.308 254.913 106.308V133.052C247.528 133.052 241.541 127.065 241.541 119.68ZM208.111 86.2496C208.111 93.6348 214.097 99.6216 221.483 99.6216C228.868 99.6216 234.855 93.6348 234.855 86.2496H208.111ZM268.285 99.6216V86.2496C268.285 78.8644 262.298 72.8775 254.913 72.8775C247.528 72.8775 241.541 78.8644 241.541 86.2496V99.6216H268.285ZM234.855 106.308V133.052H221.483C214.097 133.052 208.111 127.065 208.111 119.68C208.111 112.295 214.097 106.308 221.483 106.308H234.855Z" fill="#2F2F2F"/>
</g>
<g clip-path="url(#clip9_105_71)">
<path fill-rule="evenodd" clip-rule="evenodd" d="M186.715 345C177.484 345 170 337.516 170 328.284V345H153.285C144.054 345 136.57 337.516 136.57 328.284C136.57 319.053 144.054 311.569 153.285 311.569C144.054 311.569 136.57 304.086 136.57 294.854C136.57 290.271 138.415 286.118 141.403 283.098L141.466 283.035L141.521 282.98C144.542 279.987 148.697 278.139 153.285 278.139C157.841 278.139 161.972 279.962 164.987 282.919C165.026 282.957 165.065 282.996 165.104 283.035C165.141 283.072 165.177 283.108 165.214 283.145C168.174 286.161 170 290.294 170 294.854C170 285.623 177.484 278.139 186.715 278.139C195.947 278.139 203.43 285.623 203.43 294.854V311.569H186.715C195.947 311.569 203.43 319.053 203.43 328.284C203.43 337.516 195.947 345 186.715 345ZM173.343 328.284C173.343 320.899 179.33 314.912 186.715 314.912V341.656C179.33 341.656 173.343 335.67 173.343 328.284ZM139.913 294.854C139.913 302.24 145.9 308.226 153.285 308.226C160.67 308.226 166.657 302.24 166.657 294.854H139.913ZM200.087 308.226V294.854C200.087 287.469 194.1 281.482 186.715 281.482C179.33 281.482 173.343 287.469 173.343 294.854V308.226H200.087ZM166.657 314.912V341.656H153.285C145.9 341.656 139.913 335.67 139.913 328.284C139.913 320.899 145.9 314.912 153.285 314.912H166.657Z" fill="#2F2F2F"/>
</g>
<g clip-path="url(#clip10_105_71)">
<path fill-rule="evenodd" clip-rule="evenodd" d="M186.715 275.464C177.484 275.464 170 267.981 170 258.749V275.464H153.285C144.054 275.464 136.57 267.981 136.57 258.749C136.57 249.518 144.054 242.034 153.285 242.034C144.054 242.034 136.57 234.551 136.57 225.319C136.57 220.735 138.415 216.583 141.403 213.563L141.466 213.5L141.521 213.445C144.542 210.452 148.697 208.604 153.285 208.604C157.841 208.604 161.972 210.427 164.987 213.384C165.026 213.422 165.065 213.461 165.104 213.5C165.141 213.536 165.177 213.573 165.214 213.61C168.174 216.626 170 220.759 170 225.319C170 216.088 177.484 208.604 186.715 208.604C195.947 208.604 203.43 216.088 203.43 225.319V242.034H186.715C195.947 242.034 203.43 249.518 203.43 258.749C203.43 267.981 195.947 275.464 186.715 275.464ZM173.343 258.749C173.343 251.364 179.33 245.377 186.715 245.377V272.121C179.33 272.121 173.343 266.134 173.343 258.749ZM139.913 225.319C139.913 232.704 145.9 238.691 153.285 238.691C160.67 238.691 166.657 232.704 166.657 225.319H139.913ZM200.087 238.691V225.319C200.087 217.934 194.1 211.947 186.715 211.947C179.33 211.947 173.343 217.934 173.343 225.319V238.691H200.087ZM166.657 245.377V272.121H153.285C145.9 272.121 139.913 266.134 139.913 258.749C139.913 251.364 145.9 245.377 153.285 245.377H166.657Z" fill="#2F2F2F"/>
</g>
<g clip-path="url(#clip11_105_71)">
<path fill-rule="evenodd" clip-rule="evenodd" d="M186.715 205.93C177.484 205.93 170 198.446 170 189.215V205.93H153.285C144.054 205.93 136.57 198.446 136.57 189.215C136.57 179.983 144.054 172.5 153.285 172.5C144.054 172.5 136.57 165.016 136.57 155.785C136.57 151.201 138.415 147.048 141.403 144.028L141.466 143.965L141.521 143.91C144.542 140.918 148.697 139.069 153.285 139.069C157.841 139.069 161.972 140.893 164.987 143.849C165.026 143.888 165.065 143.926 165.104 143.965C165.141 144.002 165.177 144.039 165.214 144.075C168.174 147.091 170 151.225 170 155.785C170 146.553 177.484 139.069 186.715 139.069C195.947 139.069 203.43 146.553 203.43 155.785V172.5H186.715C195.947 172.5 203.43 179.983 203.43 189.215C203.43 198.446 195.947 205.93 186.715 205.93ZM173.343 189.215C173.343 181.829 179.33 175.843 186.715 175.843V202.587C179.33 202.587 173.343 196.6 173.343 189.215ZM139.913 155.785C139.913 163.17 145.9 169.157 153.285 169.157C160.67 169.157 166.657 163.17 166.657 155.785H139.913ZM200.087 169.157V155.785C200.087 148.399 194.1 142.412 186.715 142.412C179.33 142.412 173.343 148.399 173.343 155.785V169.157H200.087ZM166.657 175.843V202.587H153.285C145.9 202.587 139.913 196.6 139.913 189.215C139.913 181.829 145.9 175.843 153.285 175.843H166.657Z" fill="#2F2F2F"/>
</g>
<g clip-path="url(#clip12_105_71)">
<path fill-rule="evenodd" clip-rule="evenodd" d="M118.517 345C109.285 345 101.802 337.516 101.802 328.284V345H85.0868C75.8554 345 68.3717 337.516 68.3717 328.284C68.3717 319.053 75.8554 311.569 85.0868 311.569C75.8554 311.569 68.3717 304.086 68.3717 294.854C68.3717 290.271 70.2169 286.118 73.2049 283.098L73.2674 283.035L73.3229 282.98C76.3433 279.987 80.4991 278.139 85.0868 278.139C89.6431 278.139 93.7737 279.962 96.789 282.919C96.8281 282.957 96.8672 282.996 96.9061 283.035C96.9427 283.072 96.9792 283.108 97.0155 283.145C99.9759 286.161 101.802 290.294 101.802 294.854C101.802 285.623 109.285 278.139 118.517 278.139C127.748 278.139 135.232 285.623 135.232 294.854V311.569H118.517C127.748 311.569 135.232 319.053 135.232 328.284C135.232 337.516 127.748 345 118.517 345ZM105.145 328.284C105.145 320.899 111.132 314.912 118.517 314.912V341.656C111.132 341.656 105.145 335.67 105.145 328.284ZM71.7147 294.854C71.7147 302.24 77.7015 308.226 85.0868 308.226C92.472 308.226 98.4588 302.24 98.4588 294.854H71.7147ZM131.889 308.226V294.854C131.889 287.469 125.902 281.482 118.517 281.482C111.132 281.482 105.145 287.469 105.145 294.854V308.226H131.889ZM98.4588 314.912V341.656H85.0868C77.7015 341.656 71.7147 335.67 71.7147 328.284C71.7147 320.899 77.7015 314.912 85.0868 314.912H98.4588Z" fill="#2F2F2F"/>
</g>
<g clip-path="url(#clip13_105_71)">
<path fill-rule="evenodd" clip-rule="evenodd" d="M118.517 275.464C109.285 275.464 101.802 267.981 101.802 258.749V275.464H85.0868C75.8554 275.464 68.3717 267.981 68.3717 258.749C68.3717 249.518 75.8554 242.034 85.0868 242.034C75.8554 242.034 68.3717 234.551 68.3717 225.319C68.3717 220.735 70.2169 216.583 73.2049 213.563L73.2674 213.5L73.3229 213.445C76.3433 210.452 80.4991 208.604 85.0868 208.604C89.6431 208.604 93.7737 210.427 96.789 213.384C96.8281 213.422 96.8672 213.461 96.9061 213.5C96.9427 213.536 96.9792 213.573 97.0155 213.61C99.9759 216.626 101.802 220.759 101.802 225.319C101.802 216.088 109.285 208.604 118.517 208.604C127.748 208.604 135.232 216.088 135.232 225.319V242.034H118.517C127.748 242.034 135.232 249.518 135.232 258.749C135.232 267.981 127.748 275.464 118.517 275.464ZM105.145 258.749C105.145 251.364 111.132 245.377 118.517 245.377V272.121C111.132 272.121 105.145 266.134 105.145 258.749ZM71.7147 225.319C71.7147 232.704 77.7015 238.691 85.0868 238.691C92.472 238.691 98.4588 232.704 98.4588 225.319H71.7147ZM131.889 238.691V225.319C131.889 217.934 125.902 211.947 118.517 211.947C111.132 211.947 105.145 217.934 105.145 225.319V238.691H131.889ZM98.4588 245.377V272.121H85.0868C77.7015 272.121 71.7147 266.134 71.7147 258.749C71.7147 251.364 77.7015 245.377 85.0868 245.377H98.4588Z" fill="#2F2F2F"/>
</g>
<g clip-path="url(#clip14_105_71)">
<path fill-rule="evenodd" clip-rule="evenodd" d="M50.3196 345C41.0882 345 33.6045 337.516 33.6045 328.284V345H16.8895C7.6581 345 0.174431 337.516 0.174431 328.284C0.174431 319.053 7.6581 311.569 16.8895 311.569C7.6581 311.569 0.174431 304.086 0.174431 294.854C0.174431 290.271 2.01961 286.118 5.00759 283.098L5.07011 283.035L5.1256 282.98C8.14601 279.987 12.3019 278.139 16.8895 278.139C21.4458 278.139 25.5765 279.962 28.5917 282.919C28.6308 282.957 28.6699 282.996 28.7089 283.035C28.7455 283.072 28.7819 283.108 28.8182 283.145C31.7786 286.161 33.6045 290.294 33.6045 294.854C33.6045 285.623 41.0882 278.139 50.3196 278.139C59.5511 278.139 67.0347 285.623 67.0347 294.854V311.569H50.3196C59.5511 311.569 67.0347 319.053 67.0347 328.284C67.0347 337.516 59.5511 345 50.3196 345ZM36.9476 328.284C36.9476 320.899 42.9344 314.912 50.3196 314.912V341.656C42.9344 341.656 36.9476 335.67 36.9476 328.284ZM3.51744 294.854C3.51744 302.24 9.50428 308.226 16.8895 308.226C24.2747 308.226 30.2615 302.24 30.2615 294.854H3.51744ZM63.6917 308.226V294.854C63.6917 287.469 57.7048 281.482 50.3196 281.482C42.9344 281.482 36.9476 287.469 36.9476 294.854V308.226H63.6917ZM30.2615 314.912V341.656H16.8895C9.50428 341.656 3.51744 335.67 3.51744 328.284C3.51744 320.899 9.50428 314.912 16.8895 314.912H30.2615Z" fill="#2F2F2F"/>
</g>
<defs>
<clipPath id="clip0_105_71">
<rect width="66.8602" height="66.8602" fill="white" transform="matrix(-1 0 0 -1 339.825 345)"/>
</clipPath>
<clipPath id="clip1_105_71">
<rect width="66.8602" height="66.8602" fill="white" transform="matrix(-1 0 0 -1 339.826 275.464)"/>
</clipPath>
<clipPath id="clip2_105_71">
<rect width="66.8602" height="66.8602" fill="white" transform="matrix(-1 0 0 -1 339.826 205.93)"/>
</clipPath>
<clipPath id="clip3_105_71">
<rect width="66.8602" height="66.8602" fill="white" transform="matrix(-1 0 0 -1 339.826 136.395)"/>
</clipPath>
<clipPath id="clip4_105_71">
<rect width="66.8602" height="66.8602" fill="white" transform="matrix(-1 0 0 -1 339.826 66.8599)"/>
</clipPath>
<clipPath id="clip5_105_71">
<rect width="66.8602" height="66.8602" fill="white" transform="matrix(-1 0 0 -1 271.628 345)"/>
</clipPath>
<clipPath id="clip6_105_71">
<rect width="66.8602" height="66.8602" fill="white" transform="matrix(-1 0 0 -1 271.628 275.464)"/>
</clipPath>
<clipPath id="clip7_105_71">
<rect width="66.8602" height="66.8602" fill="white" transform="matrix(-1 0 0 -1 271.628 205.93)"/>
</clipPath>
<clipPath id="clip8_105_71">
<rect width="66.8602" height="66.8602" fill="white" transform="matrix(-1 0 0 -1 271.628 136.395)"/>
</clipPath>
<clipPath id="clip9_105_71">
<rect width="66.8602" height="66.8602" fill="white" transform="matrix(-1 0 0 -1 203.43 345)"/>
</clipPath>
<clipPath id="clip10_105_71">
<rect width="66.8602" height="66.8602" fill="white" transform="matrix(-1 0 0 -1 203.43 275.464)"/>
</clipPath>
<clipPath id="clip11_105_71">
<rect width="66.8602" height="66.8602" fill="white" transform="matrix(-1 0 0 -1 203.43 205.93)"/>
</clipPath>
<clipPath id="clip12_105_71">
<rect width="66.8602" height="66.8602" fill="white" transform="matrix(-1 0 0 -1 135.232 345)"/>
</clipPath>
<clipPath id="clip13_105_71">
<rect width="66.8602" height="66.8602" fill="white" transform="matrix(-1 0 0 -1 135.232 275.464)"/>
</clipPath>
<clipPath id="clip14_105_71">
<rect width="66.8602" height="66.8602" fill="white" transform="matrix(-1 0 0 -1 67.0347 345)"/>
</clipPath>
</defs>
</svg>
