<svg width="340" height="345" viewBox="0 0 340 345" fill="none" xmlns="http://www.w3.org/2000/svg">
<g clip-path="url(#clip0_105_40)">
<path fill-rule="evenodd" clip-rule="evenodd" d="M16.8894 -0.000244141C26.1208 -0.000244141 33.6044 7.48334 33.6044 16.7148V-0.000244141H50.3195C59.5509 -0.000244141 67.0346 7.48334 67.0346 16.7148C67.0346 25.9462 59.5509 33.4299 50.3195 33.4299C59.5509 33.4299 67.0346 40.9135 67.0346 50.1449C67.0346 54.7287 65.1894 58.8816 62.2014 61.9013L62.1389 61.9643L62.0834 62.0195C59.063 65.0118 54.9071 66.86 50.3195 66.86C45.7631 66.86 41.6325 65.0369 38.6173 62.0803C38.5782 62.0419 38.5391 62.0031 38.5001 61.9643C38.4635 61.9277 38.4271 61.8909 38.3908 61.854C35.4304 58.8383 33.6044 54.7048 33.6044 50.1449C33.6044 59.3763 26.1208 66.86 16.8894 66.86C7.6579 66.86 0.174316 59.3763 0.174316 50.1449V33.4299H16.8894C7.6579 33.4299 0.174316 25.9462 0.174316 16.7148C0.174316 7.48334 7.6579 -0.000244141 16.8894 -0.000244141ZM30.2614 16.7148C30.2614 24.1 24.2746 30.0869 16.8894 30.0869V3.34277C24.2746 3.34277 30.2614 9.32963 30.2614 16.7148ZM63.6915 50.1449C63.6915 42.7597 57.7047 36.7729 50.3195 36.7729C42.9343 36.7729 36.9474 42.7597 36.9474 50.1449H63.6915ZM3.51733 36.7729V50.1449C3.51733 57.5301 9.50419 63.517 16.8894 63.517C24.2746 63.517 30.2614 57.5301 30.2614 50.1449V36.7729H3.51733ZM36.9474 30.0869V3.34277H50.3195C57.7047 3.34277 63.6915 9.32963 63.6915 16.7148C63.6915 24.1 57.7047 30.0869 50.3195 30.0869H36.9474Z" fill="#2F2F2F"/>
</g>
<g clip-path="url(#clip1_105_40)">
<path fill-rule="evenodd" clip-rule="evenodd" d="M16.8894 69.5349C26.1208 69.5349 33.6044 77.0185 33.6044 86.25V69.5349H50.3195C59.5509 69.5349 67.0346 77.0185 67.0346 86.25C67.0346 95.4814 59.5509 102.965 50.3195 102.965C59.5509 102.965 67.0346 110.449 67.0346 119.68C67.0346 124.264 65.1894 128.417 62.2014 131.436L62.1389 131.499L62.0834 131.555C59.063 134.547 54.9071 136.395 50.3195 136.395C45.7631 136.395 41.6325 134.572 38.6173 131.615C38.5782 131.577 38.5391 131.538 38.5001 131.499C38.4635 131.463 38.4271 131.426 38.3908 131.389C35.4304 128.373 33.6044 124.24 33.6044 119.68C33.6044 128.911 26.1208 136.395 16.8894 136.395C7.6579 136.395 0.174316 128.911 0.174316 119.68V102.965H16.8894C7.6579 102.965 0.174316 95.4814 0.174316 86.25C0.174316 77.0185 7.6579 69.5349 16.8894 69.5349ZM30.2614 86.25C30.2614 93.6352 24.2746 99.622 16.8894 99.622V72.8779C24.2746 72.8779 30.2614 78.8648 30.2614 86.25ZM63.6915 119.68C63.6915 112.295 57.7047 106.308 50.3195 106.308C42.9343 106.308 36.9474 112.295 36.9474 119.68H63.6915ZM3.51733 106.308V119.68C3.51733 127.065 9.50419 133.052 16.8894 133.052C24.2746 133.052 30.2614 127.065 30.2614 119.68V106.308H3.51733ZM36.9474 99.622V72.8779H50.3195C57.7047 72.8779 63.6915 78.8648 63.6915 86.25C63.6915 93.6352 57.7047 99.622 50.3195 99.622H36.9474Z" fill="#2F2F2F"/>
</g>
<g clip-path="url(#clip2_105_40)">
<path fill-rule="evenodd" clip-rule="evenodd" d="M16.8894 139.069C26.1208 139.069 33.6044 146.553 33.6044 155.785V139.069H50.3195C59.5509 139.069 67.0346 146.553 67.0346 155.785C67.0346 165.016 59.5509 172.5 50.3195 172.5C59.5509 172.5 67.0346 179.983 67.0346 189.215C67.0346 193.798 65.1894 197.951 62.2014 200.971L62.1389 201.034L62.0834 201.089C59.063 204.082 54.9071 205.93 50.3195 205.93C45.7631 205.93 41.6325 204.107 38.6173 201.15C38.5782 201.112 38.5391 201.073 38.5001 201.034C38.4635 200.997 38.4271 200.961 38.3908 200.924C35.4304 197.908 33.6044 193.775 33.6044 189.215C33.6044 198.446 26.1208 205.93 16.8894 205.93C7.6579 205.93 0.174316 198.446 0.174316 189.215V172.5H16.8894C7.6579 172.5 0.174316 165.016 0.174316 155.785C0.174316 146.553 7.6579 139.069 16.8894 139.069ZM30.2614 155.785C30.2614 163.17 24.2746 169.157 16.8894 169.157V142.412C24.2746 142.412 30.2614 148.399 30.2614 155.785ZM63.6915 189.215C63.6915 181.829 57.7047 175.843 50.3195 175.843C42.9343 175.843 36.9474 181.829 36.9474 189.215H63.6915ZM3.51733 175.843V189.215C3.51733 196.6 9.50419 202.587 16.8894 202.587C24.2746 202.587 30.2614 196.6 30.2614 189.215V175.843H3.51733ZM36.9474 169.157V142.412H50.3195C57.7047 142.412 63.6915 148.399 63.6915 155.785C63.6915 163.17 57.7047 169.157 50.3195 169.157H36.9474Z" fill="#2F2F2F"/>
</g>
<g clip-path="url(#clip3_105_40)">
<path fill-rule="evenodd" clip-rule="evenodd" d="M16.8894 208.604C26.1208 208.604 33.6044 216.088 33.6044 225.32V208.604H50.3195C59.5509 208.604 67.0346 216.088 67.0346 225.32C67.0346 234.551 59.5509 242.035 50.3195 242.035C59.5509 242.035 67.0346 249.518 67.0346 258.75C67.0346 263.333 65.1894 267.486 62.2014 270.506L62.1389 270.569L62.0834 270.624C59.063 273.617 54.9071 275.465 50.3195 275.465C45.7631 275.465 41.6325 273.642 38.6173 270.685C38.5782 270.647 38.5391 270.608 38.5001 270.569C38.4635 270.532 38.4271 270.496 38.3908 270.459C35.4304 267.443 33.6044 263.31 33.6044 258.75C33.6044 267.981 26.1208 275.465 16.8894 275.465C7.6579 275.465 0.174316 267.981 0.174316 258.75V242.035H16.8894C7.6579 242.035 0.174316 234.551 0.174316 225.32C0.174316 216.088 7.6579 208.604 16.8894 208.604ZM30.2614 225.32C30.2614 232.705 24.2746 238.692 16.8894 238.692V211.948C24.2746 211.948 30.2614 217.934 30.2614 225.32ZM63.6915 258.75C63.6915 251.364 57.7047 245.378 50.3195 245.378C42.9343 245.378 36.9474 251.364 36.9474 258.75H63.6915ZM3.51733 245.378V258.75C3.51733 266.135 9.50419 272.122 16.8894 272.122C24.2746 272.122 30.2614 266.135 30.2614 258.75V245.378H3.51733ZM36.9474 238.692V211.948H50.3195C57.7047 211.948 63.6915 217.934 63.6915 225.32C63.6915 232.705 57.7047 238.692 50.3195 238.692H36.9474Z" fill="#2F2F2F"/>
</g>
<g clip-path="url(#clip4_105_40)">
<path fill-rule="evenodd" clip-rule="evenodd" d="M16.8894 278.14C26.1208 278.14 33.6044 285.623 33.6044 294.855V278.14H50.3195C59.5509 278.14 67.0346 285.623 67.0346 294.855C67.0346 304.086 59.5509 311.57 50.3195 311.57C59.5509 311.57 67.0346 319.053 67.0346 328.285C67.0346 332.869 65.1894 337.021 62.2014 340.041L62.1389 340.104L62.0834 340.159C59.063 343.152 54.9071 345 50.3195 345C45.7631 345 41.6325 343.177 38.6173 340.22C38.5782 340.182 38.5391 340.143 38.5001 340.104C38.4635 340.068 38.4271 340.031 38.3908 339.994C35.4304 336.978 33.6044 332.845 33.6044 328.285C33.6044 337.516 26.1208 345 16.8894 345C7.6579 345 0.174316 337.516 0.174316 328.285V311.57H16.8894C7.6579 311.57 0.174316 304.086 0.174316 294.855C0.174316 285.623 7.6579 278.14 16.8894 278.14ZM30.2614 294.855C30.2614 302.24 24.2746 308.227 16.8894 308.227V281.483C24.2746 281.483 30.2614 287.47 30.2614 294.855ZM63.6915 328.285C63.6915 320.9 57.7047 314.913 50.3195 314.913C42.9343 314.913 36.9474 320.9 36.9474 328.285H63.6915ZM3.51733 314.913V328.285C3.51733 335.67 9.50419 341.657 16.8894 341.657C24.2746 341.657 30.2614 335.67 30.2614 328.285V314.913H3.51733ZM36.9474 308.227V281.483H50.3195C57.7047 281.483 63.6915 287.47 63.6915 294.855C63.6915 302.24 57.7047 308.227 50.3195 308.227H36.9474Z" fill="#2F2F2F"/>
</g>
<g clip-path="url(#clip5_105_40)">
<path fill-rule="evenodd" clip-rule="evenodd" d="M85.0869 -0.000244141C94.3183 -0.000244141 101.802 7.48334 101.802 16.7148V-0.000244141H118.517C127.748 -0.000244141 135.232 7.48334 135.232 16.7148C135.232 25.9462 127.748 33.4299 118.517 33.4299C127.748 33.4299 135.232 40.9135 135.232 50.1449C135.232 54.7287 133.387 58.8816 130.399 61.9013L130.336 61.9643L130.281 62.0195C127.26 65.0118 123.105 66.86 118.517 66.86C113.961 66.86 109.83 65.0369 106.815 62.0803C106.776 62.0419 106.737 62.0031 106.698 61.9643C106.661 61.9277 106.625 61.8909 106.588 61.854C103.628 58.8383 101.802 54.7048 101.802 50.1449C101.802 59.3763 94.3183 66.86 85.0869 66.86C75.8554 66.86 68.3718 59.3763 68.3718 50.1449V33.4299H85.0869C75.8554 33.4299 68.3718 25.9462 68.3718 16.7148C68.3718 7.48334 75.8554 -0.000244141 85.0869 -0.000244141ZM98.4589 16.7148C98.4589 24.1 92.4721 30.0869 85.0869 30.0869V3.34277C92.4721 3.34277 98.4589 9.32963 98.4589 16.7148ZM131.889 50.1449C131.889 42.7597 125.902 36.7729 118.517 36.7729C111.132 36.7729 105.145 42.7597 105.145 50.1449H131.889ZM71.7148 36.7729V50.1449C71.7148 57.5301 77.7017 63.517 85.0869 63.517C92.4721 63.517 98.4589 57.5301 98.4589 50.1449V36.7729H71.7148ZM105.145 30.0869V3.34277H118.517C125.902 3.34277 131.889 9.32963 131.889 16.7148C131.889 24.1 125.902 30.0869 118.517 30.0869H105.145Z" fill="#2F2F2F"/>
</g>
<g clip-path="url(#clip6_105_40)">
<path fill-rule="evenodd" clip-rule="evenodd" d="M85.0871 69.5349C94.3185 69.5349 101.802 77.0185 101.802 86.25V69.5349H118.517C127.749 69.5349 135.232 77.0185 135.232 86.25C135.232 95.4814 127.749 102.965 118.517 102.965C127.749 102.965 135.232 110.449 135.232 119.68C135.232 124.264 133.387 128.417 130.399 131.436L130.337 131.499L130.281 131.555C127.261 134.547 123.105 136.395 118.517 136.395C113.961 136.395 109.83 134.572 106.815 131.615C106.776 131.577 106.737 131.538 106.698 131.499C106.661 131.463 106.625 131.426 106.589 131.389C103.628 128.373 101.802 124.24 101.802 119.68C101.802 128.911 94.3185 136.395 85.0871 136.395C75.8557 136.395 68.3721 128.911 68.3721 119.68V102.965H85.0871C75.8557 102.965 68.3721 95.4814 68.3721 86.25C68.3721 77.0185 75.8557 69.5349 85.0871 69.5349ZM98.4592 86.25C98.4592 93.6352 92.4723 99.622 85.0871 99.622V72.8779C92.4723 72.8779 98.4592 78.8648 98.4592 86.25ZM131.889 119.68C131.889 112.295 125.902 106.308 118.517 106.308C111.132 106.308 105.145 112.295 105.145 119.68H131.889ZM71.7151 106.308V119.68C71.7151 127.065 77.7019 133.052 85.0871 133.052C92.4723 133.052 98.4592 127.065 98.4592 119.68V106.308H71.7151ZM105.145 99.622V72.8779H118.517C125.902 72.8779 131.889 78.8648 131.889 86.25C131.889 93.6352 125.902 99.622 118.517 99.622H105.145Z" fill="#2F2F2F"/>
</g>
<g clip-path="url(#clip7_105_40)">
<path fill-rule="evenodd" clip-rule="evenodd" d="M85.0869 139.069C94.3183 139.069 101.802 146.553 101.802 155.785V139.069H118.517C127.748 139.069 135.232 146.553 135.232 155.785C135.232 165.016 127.748 172.5 118.517 172.5C127.748 172.5 135.232 179.983 135.232 189.215C135.232 193.798 133.387 197.951 130.399 200.971L130.336 201.034L130.281 201.089C127.26 204.082 123.105 205.93 118.517 205.93C113.961 205.93 109.83 204.107 106.815 201.15C106.776 201.112 106.737 201.073 106.698 201.034C106.661 200.997 106.625 200.961 106.588 200.924C103.628 197.908 101.802 193.775 101.802 189.215C101.802 198.446 94.3183 205.93 85.0869 205.93C75.8554 205.93 68.3718 198.446 68.3718 189.215V172.5H85.0869C75.8554 172.5 68.3718 165.016 68.3718 155.785C68.3718 146.553 75.8554 139.069 85.0869 139.069ZM98.4589 155.785C98.4589 163.17 92.4721 169.157 85.0869 169.157V142.412C92.4721 142.412 98.4589 148.399 98.4589 155.785ZM131.889 189.215C131.889 181.829 125.902 175.843 118.517 175.843C111.132 175.843 105.145 181.829 105.145 189.215H131.889ZM71.7148 175.843V189.215C71.7148 196.6 77.7017 202.587 85.0869 202.587C92.4721 202.587 98.4589 196.6 98.4589 189.215V175.843H71.7148ZM105.145 169.157V142.412H118.517C125.902 142.412 131.889 148.399 131.889 155.785C131.889 163.17 125.902 169.157 118.517 169.157H105.145Z" fill="#2F2F2F"/>
</g>
<g clip-path="url(#clip8_105_40)">
<path fill-rule="evenodd" clip-rule="evenodd" d="M85.0871 208.604C94.3185 208.604 101.802 216.088 101.802 225.32V208.604H118.517C127.749 208.604 135.232 216.088 135.232 225.32C135.232 234.551 127.749 242.035 118.517 242.035C127.749 242.035 135.232 249.518 135.232 258.75C135.232 263.333 133.387 267.486 130.399 270.506L130.337 270.569L130.281 270.624C127.261 273.617 123.105 275.465 118.517 275.465C113.961 275.465 109.83 273.642 106.815 270.685C106.776 270.647 106.737 270.608 106.698 270.569C106.661 270.532 106.625 270.496 106.589 270.459C103.628 267.443 101.802 263.31 101.802 258.75C101.802 267.981 94.3185 275.465 85.0871 275.465C75.8557 275.465 68.3721 267.981 68.3721 258.75V242.035H85.0871C75.8557 242.035 68.3721 234.551 68.3721 225.32C68.3721 216.088 75.8557 208.604 85.0871 208.604ZM98.4592 225.32C98.4592 232.705 92.4723 238.692 85.0871 238.692V211.948C92.4723 211.948 98.4592 217.934 98.4592 225.32ZM131.889 258.75C131.889 251.364 125.902 245.378 118.517 245.378C111.132 245.378 105.145 251.364 105.145 258.75H131.889ZM71.7151 245.378V258.75C71.7151 266.135 77.7019 272.122 85.0871 272.122C92.4723 272.122 98.4592 266.135 98.4592 258.75V245.378H71.7151ZM105.145 238.692V211.948H118.517C125.902 211.948 131.889 217.934 131.889 225.32C131.889 232.705 125.902 238.692 118.517 238.692H105.145Z" fill="#2F2F2F"/>
</g>
<g clip-path="url(#clip9_105_40)">
<path fill-rule="evenodd" clip-rule="evenodd" d="M153.285 -0.000244141C162.516 -0.000244141 170 7.48334 170 16.7148V-0.000244141H186.715C195.946 -0.000244141 203.43 7.48334 203.43 16.7148C203.43 25.9462 195.946 33.4299 186.715 33.4299C195.946 33.4299 203.43 40.9135 203.43 50.1449C203.43 54.7287 201.585 58.8816 198.597 61.9013L198.534 61.9643L198.479 62.0195C195.458 65.0118 191.303 66.86 186.715 66.86C182.159 66.86 178.028 65.0369 175.013 62.0803C174.974 62.0419 174.935 62.0031 174.896 61.9643C174.859 61.9277 174.823 61.8909 174.786 61.854C171.826 58.8383 170 54.7048 170 50.1449C170 59.3763 162.516 66.86 153.285 66.86C144.053 66.86 136.57 59.3763 136.57 50.1449V33.4299H153.285C144.053 33.4299 136.57 25.9462 136.57 16.7148C136.57 7.48334 144.053 -0.000244141 153.285 -0.000244141ZM166.657 16.7148C166.657 24.1 160.67 30.0869 153.285 30.0869V3.34277C160.67 3.34277 166.657 9.32963 166.657 16.7148ZM200.087 50.1449C200.087 42.7597 194.1 36.7729 186.715 36.7729C179.33 36.7729 173.343 42.7597 173.343 50.1449H200.087ZM139.913 36.7729V50.1449C139.913 57.5301 145.9 63.517 153.285 63.517C160.67 63.517 166.657 57.5301 166.657 50.1449V36.7729H139.913ZM173.343 30.0869V3.34277H186.715C194.1 3.34277 200.087 9.32963 200.087 16.7148C200.087 24.1 194.1 30.0869 186.715 30.0869H173.343Z" fill="#2F2F2F"/>
</g>
<g clip-path="url(#clip10_105_40)">
<path fill-rule="evenodd" clip-rule="evenodd" d="M153.285 69.5348C162.516 69.5348 170 77.0184 170 86.2498V69.5348H186.715C195.946 69.5348 203.43 77.0184 203.43 86.2498C203.43 95.4812 195.946 102.965 186.715 102.965C195.946 102.965 203.43 110.449 203.43 119.68C203.43 124.264 201.585 128.417 198.597 131.436L198.534 131.499L198.479 131.555C195.458 134.547 191.303 136.395 186.715 136.395C182.159 136.395 178.028 134.572 175.013 131.615C174.974 131.577 174.935 131.538 174.896 131.499C174.859 131.463 174.823 131.426 174.786 131.389C171.826 128.373 170 124.24 170 119.68C170 128.911 162.516 136.395 153.285 136.395C144.053 136.395 136.57 128.911 136.57 119.68V102.965H153.285C144.053 102.965 136.57 95.4812 136.57 86.2498C136.57 77.0184 144.053 69.5348 153.285 69.5348ZM166.657 86.2498C166.657 93.6351 160.67 99.6219 153.285 99.6219V72.8778C160.67 72.8778 166.657 78.8647 166.657 86.2498ZM200.087 119.68C200.087 112.295 194.1 106.308 186.715 106.308C179.33 106.308 173.343 112.295 173.343 119.68H200.087ZM139.913 106.308V119.68C139.913 127.065 145.9 133.052 153.285 133.052C160.67 133.052 166.657 127.065 166.657 119.68V106.308H139.913ZM173.343 99.6219V72.8778H186.715C194.1 72.8778 200.087 78.8647 200.087 86.2498C200.087 93.6351 194.1 99.6219 186.715 99.6219H173.343Z" fill="#2F2F2F"/>
</g>
<g clip-path="url(#clip11_105_40)">
<path fill-rule="evenodd" clip-rule="evenodd" d="M153.285 139.069C162.516 139.069 170 146.553 170 155.785V139.069H186.715C195.946 139.069 203.43 146.553 203.43 155.785C203.43 165.016 195.946 172.5 186.715 172.5C195.946 172.5 203.43 179.983 203.43 189.215C203.43 193.798 201.585 197.951 198.597 200.971L198.534 201.034L198.479 201.089C195.458 204.082 191.303 205.93 186.715 205.93C182.159 205.93 178.028 204.107 175.013 201.15C174.974 201.112 174.935 201.073 174.896 201.034C174.859 200.997 174.823 200.961 174.786 200.924C171.826 197.908 170 193.775 170 189.215C170 198.446 162.516 205.93 153.285 205.93C144.053 205.93 136.57 198.446 136.57 189.215V172.5H153.285C144.053 172.5 136.57 165.016 136.57 155.785C136.57 146.553 144.053 139.069 153.285 139.069ZM166.657 155.785C166.657 163.17 160.67 169.157 153.285 169.157V142.412C160.67 142.412 166.657 148.399 166.657 155.785ZM200.087 189.215C200.087 181.829 194.1 175.843 186.715 175.843C179.33 175.843 173.343 181.829 173.343 189.215H200.087ZM139.913 175.843V189.215C139.913 196.6 145.9 202.587 153.285 202.587C160.67 202.587 166.657 196.6 166.657 189.215V175.843H139.913ZM173.343 169.157V142.412H186.715C194.1 142.412 200.087 148.399 200.087 155.785C200.087 163.17 194.1 169.157 186.715 169.157H173.343Z" fill="#2F2F2F"/>
</g>
<g clip-path="url(#clip12_105_40)">
<path fill-rule="evenodd" clip-rule="evenodd" d="M221.483 -0.000244141C230.714 -0.000244141 238.198 7.48334 238.198 16.7148V-0.000244141H254.913C264.144 -0.000244141 271.628 7.48334 271.628 16.7148C271.628 25.9462 264.144 33.4299 254.913 33.4299C264.144 33.4299 271.628 40.9135 271.628 50.1449C271.628 54.7287 269.783 58.8816 266.795 61.9013L266.732 61.9643L266.677 62.0195C263.656 65.0118 259.5 66.86 254.913 66.86C250.356 66.86 246.226 65.0369 243.211 62.0803C243.171 62.0419 243.132 62.0031 243.093 61.9643C243.057 61.9277 243.02 61.8909 242.984 61.854C240.024 58.8383 238.198 54.7048 238.198 50.1449C238.198 59.3763 230.714 66.86 221.483 66.86C212.251 66.86 204.768 59.3763 204.768 50.1449V33.4299H221.483C212.251 33.4299 204.768 25.9462 204.768 16.7148C204.768 7.48334 212.251 -0.000244141 221.483 -0.000244141ZM234.855 16.7148C234.855 24.1 228.868 30.0869 221.483 30.0869V3.34277C228.868 3.34277 234.855 9.32963 234.855 16.7148ZM268.285 50.1449C268.285 42.7597 262.298 36.7729 254.913 36.7729C247.528 36.7729 241.541 42.7597 241.541 50.1449H268.285ZM208.111 36.7729V50.1449C208.111 57.5301 214.097 63.517 221.483 63.517C228.868 63.517 234.855 57.5301 234.855 50.1449V36.7729H208.111ZM241.541 30.0869V3.34277H254.913C262.298 3.34277 268.285 9.32963 268.285 16.7148C268.285 24.1 262.298 30.0869 254.913 30.0869H241.541Z" fill="#2F2F2F"/>
</g>
<g clip-path="url(#clip13_105_40)">
<path fill-rule="evenodd" clip-rule="evenodd" d="M221.483 69.5349C230.714 69.5349 238.198 77.0185 238.198 86.25V69.5349H254.913C264.144 69.5349 271.628 77.0185 271.628 86.25C271.628 95.4814 264.144 102.965 254.913 102.965C264.144 102.965 271.628 110.449 271.628 119.68C271.628 124.264 269.783 128.417 266.795 131.436L266.732 131.499L266.677 131.555C263.656 134.547 259.5 136.395 254.913 136.395C250.356 136.395 246.226 134.572 243.211 131.615C243.171 131.577 243.132 131.538 243.093 131.499C243.057 131.463 243.02 131.426 242.984 131.389C240.024 128.373 238.198 124.24 238.198 119.68C238.198 128.911 230.714 136.395 221.483 136.395C212.251 136.395 204.768 128.911 204.768 119.68V102.965H221.483C212.251 102.965 204.768 95.4814 204.768 86.25C204.768 77.0185 212.251 69.5349 221.483 69.5349ZM234.855 86.25C234.855 93.6352 228.868 99.622 221.483 99.622V72.8779C228.868 72.8779 234.855 78.8648 234.855 86.25ZM268.285 119.68C268.285 112.295 262.298 106.308 254.913 106.308C247.528 106.308 241.541 112.295 241.541 119.68H268.285ZM208.111 106.308V119.68C208.111 127.065 214.097 133.052 221.483 133.052C228.868 133.052 234.855 127.065 234.855 119.68V106.308H208.111ZM241.541 99.622V72.8779H254.913C262.298 72.8779 268.285 78.8648 268.285 86.25C268.285 93.6352 262.298 99.622 254.913 99.622H241.541Z" fill="#2F2F2F"/>
</g>
<g clip-path="url(#clip14_105_40)">
<path fill-rule="evenodd" clip-rule="evenodd" d="M289.68 -0.000244141C298.912 -0.000244141 306.395 7.48334 306.395 16.7148V-0.000244141H323.111C332.342 -0.000244141 339.826 7.48334 339.826 16.7148C339.826 25.9462 332.342 33.4299 323.111 33.4299C332.342 33.4299 339.826 40.9135 339.826 50.1449C339.826 54.7287 337.98 58.8816 334.992 61.9013L334.93 61.9643L334.874 62.0195C331.854 65.0118 327.698 66.86 323.111 66.86C318.554 66.86 314.424 65.0369 311.408 62.0803C311.369 62.0419 311.33 62.0031 311.291 61.9643C311.255 61.9277 311.218 61.8909 311.182 61.854C308.221 58.8383 306.395 54.7048 306.395 50.1449C306.395 59.3763 298.912 66.86 289.68 66.86C280.449 66.86 272.965 59.3763 272.965 50.1449V33.4299H289.68C280.449 33.4299 272.965 25.9462 272.965 16.7148C272.965 7.48334 280.449 -0.000244141 289.68 -0.000244141ZM303.052 16.7148C303.052 24.1 297.066 30.0869 289.68 30.0869V3.34277C297.066 3.34277 303.052 9.32963 303.052 16.7148ZM336.483 50.1449C336.483 42.7597 330.496 36.7729 323.111 36.7729C315.725 36.7729 309.738 42.7597 309.738 50.1449H336.483ZM276.308 36.7729V50.1449C276.308 57.5301 282.295 63.517 289.68 63.517C297.066 63.517 303.052 57.5301 303.052 50.1449V36.7729H276.308ZM309.738 30.0869V3.34277H323.111C330.496 3.34277 336.483 9.32963 336.483 16.7148C336.483 24.1 330.496 30.0869 323.111 30.0869H309.738Z" fill="#2F2F2F"/>
</g>
<defs>
<clipPath id="clip0_105_40">
<rect width="66.8602" height="66.8602" fill="white" transform="translate(0.174316 -0.000244141)"/>
</clipPath>
<clipPath id="clip1_105_40">
<rect width="66.8602" height="66.8602" fill="white" transform="translate(0.174316 69.5349)"/>
</clipPath>
<clipPath id="clip2_105_40">
<rect width="66.8602" height="66.8602" fill="white" transform="translate(0.174316 139.069)"/>
</clipPath>
<clipPath id="clip3_105_40">
<rect width="66.8602" height="66.8602" fill="white" transform="translate(0.174316 208.604)"/>
</clipPath>
<clipPath id="clip4_105_40">
<rect width="66.8602" height="66.8602" fill="white" transform="translate(0.174316 278.139)"/>
</clipPath>
<clipPath id="clip5_105_40">
<rect width="66.8602" height="66.8602" fill="white" transform="translate(68.3716 -0.000244141)"/>
</clipPath>
<clipPath id="clip6_105_40">
<rect width="66.8602" height="66.8602" fill="white" transform="translate(68.3718 69.5349)"/>
</clipPath>
<clipPath id="clip7_105_40">
<rect width="66.8602" height="66.8602" fill="white" transform="translate(68.3718 139.069)"/>
</clipPath>
<clipPath id="clip8_105_40">
<rect width="66.8602" height="66.8602" fill="white" transform="translate(68.3721 208.604)"/>
</clipPath>
<clipPath id="clip9_105_40">
<rect width="66.8602" height="66.8602" fill="white" transform="translate(136.57 -0.000244141)"/>
</clipPath>
<clipPath id="clip10_105_40">
<rect width="66.8602" height="66.8602" fill="white" transform="translate(136.57 69.5349)"/>
</clipPath>
<clipPath id="clip11_105_40">
<rect width="66.8602" height="66.8602" fill="white" transform="translate(136.57 139.069)"/>
</clipPath>
<clipPath id="clip12_105_40">
<rect width="66.8602" height="66.8602" fill="white" transform="translate(204.768 -0.000244141)"/>
</clipPath>
<clipPath id="clip13_105_40">
<rect width="66.8602" height="66.8602" fill="white" transform="translate(204.768 69.5349)"/>
</clipPath>
<clipPath id="clip14_105_40">
<rect width="66.8602" height="66.8602" fill="white" transform="translate(272.965 -0.000244141)"/>
</clipPath>
</defs>
</svg>
